PathFileType	4	(X/Y/Z)	c:/Users/goper/Files/vsCode/490R/osim_files/C11/C11_SSWS_04.trc
DataRate	CameraRate	NumFrames	NumMarkers	Units                	OrigDataRate	OrigDataStartFrame	OrigNumFrames
120.00	120.00	11	36	mm	120.0	870	1159
                Frame#	Time	LPSI			LASI			LTH1			LTH2			LTH3			LTH4			LLFE			LMFE			LSH1			LSH2			LSH3			LSH4			LLMA			LMMA			LCAL			LMTP			LTOE			LMTP			RPSI			RASI			RTH1			RTH2			RTH3			RTH4			RLFE			RMFE			RSH1			RSH2			RSH3			RSH4			RLMA			RMMA			RCAL			RMTP			RTOE			RMTP		
		X1	Y1	Z1	X2	Y2	Z2	X3	Y3	Z3	X4	Y4	Z4	X5	Y5	Z5	X6	Y6	Z6	X7	Y7	Z7	X8	Y8	Z8	X9	Y9	Z9	X10	Y10	Z10	X11	Y11	Z11	X12	Y12	Z12	X13	Y13	Z13	X14	Y14	Z14	X15	Y15	Z15	X16	Y16	Z16	X17	Y17	Z17	X18	Y18	Z18	X19	Y19	Z19	X20	Y20	Z20	X21	Y21	Z21	X22	Y22	Z22	X23	Y23	Z23	X24	Y24	Z24	X25	Y25	Z25	X26	Y26	Z26	X27	Y27	Z27	X28	Y28	Z28	X29	Y29	Z29	X30	Y30	Z30	X31	Y31	Z31	X32	Y32	Z32	X33	Y33	Z33	X34	Y34	Z34	X35	Y35	Z35	X36	Y36	Z36

870	7.24167	0.00000	0.00000	0.00000	-3279.80200	1020.08905	286.80835	0.00000	0.00000	0.00000	-3205.35815	575.70435	308.84821	-3256.68481	624.63556	327.18683	0.00000	0.00000	0.00000	-3230.52563	505.96487	306.40369	0.00000	0.00000	0.00000	0.00000	0.00000	0.00000	-3173.08911	358.88345	301.52597	0.00000	0.00000	0.00000	0.00000	0.00000	0.00000	-3177.48389	99.56467	221.00595	0.00000	0.00000	0.00000	0.00000	0.00000	0.00000	0.00000	0.00000	0.00000	-3364.56274	67.54912	192.75766	0.00000	0.00000	0.00000	0.00000	0.00000	0.00000	-3269.21143	1001.17938	57.14518	0.00000	0.00000	0.00000	0.00000	0.00000	0.00000	0.00000	0.00000	0.00000	0.00000	0.00000	0.00000	0.00000	0.00000	0.00000	0.00000	0.00000	0.00000	-3318.82764	491.43878	17.88030	0.00000	0.00000	0.00000	0.00000	0.00000	0.00000	0.00000	0.00000	0.00000	0.00000	0.00000	0.00000	0.00000	0.00000	0.00000	-3089.38916	223.43336	95.56010	0.00000	0.00000	0.00000	0.00000	0.00000	0.00000	0.00000	0.00000	0.00000
871	7.25000	0.00000	0.00000	0.00000	-3286.75488	1020.18134	286.86429	0.00000	0.00000	0.00000	-3206.81689	576.36511	308.89371	-3258.78760	624.69580	327.35178	0.00000	0.00000	0.00000	-3231.25439	505.97549	306.78452	0.00000	0.00000	0.00000	0.00000	0.00000	0.00000	-3173.34009	359.03595	301.76892	0.00000	0.00000	0.00000	0.00000	0.00000	0.00000	-3177.42334	99.57947	221.00870	0.00000	0.00000	0.00000	0.00000	0.00000	0.00000	0.00000	0.00000	0.00000	-3366.00977	68.68158	193.16156	0.00000	0.00000	0.00000	0.00000	0.00000	0.00000	-3277.30469	1001.99182	57.27276	0.00000	0.00000	0.00000	0.00000	0.00000	0.00000	0.00000	0.00000	0.00000	0.00000	0.00000	0.00000	0.00000	0.00000	0.00000	0.00000	0.00000	0.00000	-3332.79712	490.32700	16.70258	0.00000	0.00000	0.00000	0.00000	0.00000	0.00000	0.00000	0.00000	0.00000	0.00000	0.00000	0.00000	0.00000	0.00000	0.00000	-3114.85352	211.43779	91.58825	0.00000	0.00000	0.00000	0.00000	0.00000	0.00000	0.00000	0.00000	0.00000
872	7.25833	0.00000	0.00000	0.00000	-3293.68091	1020.11188	286.83893	0.00000	0.00000	0.00000	-3208.53052	577.08575	309.06992	-3262.11938	624.12750	326.20862	0.00000	0.00000	0.00000	-3232.16187	506.00281	307.12119	0.00000	0.00000	0.00000	0.00000	0.00000	0.00000	-3173.64307	359.20209	301.97809	0.00000	0.00000	0.00000	0.00000	0.00000	0.00000	-3177.38257	99.60565	220.99944	0.00000	0.00000	0.00000	0.00000	0.00000	0.00000	0.00000	0.00000	0.00000	-3365.95020	68.68073	193.21895	0.00000	0.00000	0.00000	0.00000	0.00000	0.00000	-3285.33911	1002.49738	57.37727	0.00000	0.00000	0.00000	0.00000	0.00000	0.00000	0.00000	0.00000	0.00000	0.00000	0.00000	0.00000	0.00000	0.00000	0.00000	0.00000	0.00000	0.00000	-3345.80908	489.54474	16.69187	0.00000	0.00000	0.00000	0.00000	0.00000	0.00000	0.00000	0.00000	0.00000	0.00000	0.00000	0.00000	0.00000	0.00000	0.00000	-3141.05566	199.70935	87.44028	0.00000	0.00000	0.00000	0.00000	0.00000	0.00000	0.00000	0.00000	0.00000
873	7.26667	0.00000	0.00000	0.00000	-3300.69995	1019.89392	286.76620	0.00000	0.00000	0.00000	-3210.42310	577.52197	309.28589	-3262.90112	624.24121	326.27237	0.00000	0.00000	0.00000	-3233.23291	506.01035	307.48328	0.00000	0.00000	0.00000	0.00000	0.00000	0.00000	-3173.95264	359.40375	302.15051	0.00000	0.00000	0.00000	0.00000	0.00000	0.00000	-3177.58179	99.63726	221.11159	0.00000	0.00000	0.00000	0.00000	0.00000	0.00000	0.00000	0.00000	0.00000	-3365.89990	68.67400	193.26236	0.00000	0.00000	0.00000	0.00000	0.00000	0.00000	-3293.32959	1002.83862	57.37473	0.00000	0.00000	0.00000	0.00000	0.00000	0.00000	0.00000	0.00000	0.00000	0.00000	0.00000	0.00000	0.00000	0.00000	0.00000	0.00000	0.00000	0.00000	-3358.77051	487.54407	14.85415	0.00000	0.00000	0.00000	0.00000	0.00000	0.00000	0.00000	0.00000	0.00000	0.00000	0.00000	0.00000	0.00000	0.00000	0.00000	-3167.81250	187.65575	83.70147	0.00000	0.00000	0.00000	0.00000	0.00000	0.00000	0.00000	0.00000	0.00000
874	7.27500	0.00000	0.00000	0.00000	-3307.66748	1019.48676	286.55017	0.00000	0.00000	0.00000	-3212.37109	578.10016	309.53281	-3265.54956	624.18634	326.48709	0.00000	0.00000	0.00000	-3234.39258	506.01843	307.85486	0.00000	0.00000	0.00000	0.00000	0.00000	0.00000	-3174.28296	359.58414	302.31693	0.00000	0.00000	0.00000	0.00000	0.00000	0.00000	-3177.55029	99.62489	221.08545	0.00000	0.00000	0.00000	0.00000	0.00000	0.00000	0.00000	0.00000	0.00000	-3364.36475	67.56832	192.91679	0.00000	0.00000	0.00000	0.00000	0.00000	0.00000	-3301.27246	1002.91345	57.36109	0.00000	0.00000	0.00000	0.00000	0.00000	0.00000	0.00000	0.00000	0.00000	0.00000	0.00000	0.00000	0.00000	0.00000	0.00000	0.00000	0.00000	0.00000	-3372.10938	485.26492	12.87234	0.00000	0.00000	0.00000	0.00000	0.00000	0.00000	0.00000	0.00000	0.00000	0.00000	0.00000	0.00000	0.00000	0.00000	0.00000	-3193.51709	176.33150	81.64783	0.00000	0.00000	0.00000	0.00000	0.00000	0.00000	0.00000	0.00000	0.00000
875	7.28333	0.00000	0.00000	0.00000	-3314.90747	1018.96387	286.37213	0.00000	0.00000	0.00000	-3214.49365	578.49921	309.76871	-3268.06836	623.92987	326.50366	0.00000	0.00000	0.00000	-3235.72705	506.03174	308.25076	0.00000	0.00000	0.00000	0.00000	0.00000	0.00000	-3174.69019	359.70810	302.40463	0.00000	0.00000	0.00000	0.00000	0.00000	0.00000	-3177.58569	99.58591	221.10014	0.00000	0.00000	0.00000	0.00000	0.00000	0.00000	0.00000	0.00000	0.00000	-3365.78784	68.64973	193.31905	0.00000	0.00000	0.00000	0.00000	0.00000	0.00000	-3309.28833	1002.79791	57.26830	0.00000	0.00000	0.00000	0.00000	0.00000	0.00000	0.00000	0.00000	0.00000	0.00000	0.00000	0.00000	0.00000	0.00000	0.00000	0.00000	0.00000	0.00000	-3385.65186	482.24844	10.84196	0.00000	0.00000	0.00000	0.00000	0.00000	0.00000	0.00000	0.00000	0.00000	0.00000	0.00000	0.00000	0.00000	0.00000	0.00000	-3221.71729	164.30080	78.46652	0.00000	0.00000	0.00000	0.00000	0.00000	0.00000	0.00000	0.00000	0.00000
876	7.29167	0.00000	0.00000	0.00000	-3322.18652	1018.34741	286.17447	0.00000	0.00000	0.00000	-3216.69165	578.83325	310.12610	-3271.03247	623.76617	326.71140	0.00000	0.00000	0.00000	-3237.02441	505.99857	308.67114	0.00000	0.00000	0.00000	0.00000	0.00000	0.00000	-3175.17407	359.89078	302.52963	0.00000	0.00000	0.00000	0.00000	0.00000	0.00000	-3177.57007	99.53130	221.10225	0.00000	0.00000	0.00000	0.00000	0.00000	0.00000	0.00000	0.00000	0.00000	-3365.72485	68.61623	193.36079	0.00000	0.00000	0.00000	0.00000	0.00000	0.00000	-3317.19263	1002.40753	57.13201	0.00000	0.00000	0.00000	0.00000	0.00000	0.00000	0.00000	0.00000	0.00000	0.00000	0.00000	0.00000	0.00000	0.00000	0.00000	0.00000	0.00000	0.00000	-3398.97534	478.74069	8.75212	0.00000	0.00000	0.00000	0.00000	0.00000	0.00000	0.00000	0.00000	0.00000	0.00000	0.00000	0.00000	0.00000	0.00000	0.00000	-3250.49609	152.55557	75.55900	0.00000	0.00000	0.00000	0.00000	0.00000	0.00000	0.00000	0.00000	0.00000
877	7.30000	0.00000	0.00000	0.00000	-3329.46802	1017.44293	285.95227	0.00000	0.00000	0.00000	-3219.02319	579.09583	310.53882	-3273.82715	623.41895	326.73886	0.00000	0.00000	0.00000	-3238.36792	505.84439	309.05716	0.00000	0.00000	0.00000	0.00000	0.00000	0.00000	-3175.62207	360.10144	302.63174	0.00000	0.00000	0.00000	0.00000	0.00000	0.00000	-3177.50464	99.52368	221.06277	0.00000	0.00000	0.00000	0.00000	0.00000	0.00000	0.00000	0.00000	0.00000	-3365.68164	68.53735	193.44215	0.00000	0.00000	0.00000	0.00000	0.00000	0.00000	-3325.10059	1001.80328	56.97023	0.00000	0.00000	0.00000	0.00000	0.00000	0.00000	0.00000	0.00000	0.00000	0.00000	0.00000	0.00000	0.00000	0.00000	0.00000	0.00000	0.00000	0.00000	-3414.28271	473.88519	5.30299	0.00000	0.00000	0.00000	0.00000	0.00000	0.00000	0.00000	0.00000	0.00000	0.00000	0.00000	0.00000	0.00000	0.00000	0.00000	-3279.28882	141.13885	72.93755	0.00000	0.00000	0.00000	0.00000	0.00000	0.00000	0.00000	0.00000	0.00000
878	7.30833	0.00000	0.00000	0.00000	-3336.95190	1016.55957	285.74579	0.00000	0.00000	0.00000	-3221.41919	579.35529	310.94080	-3276.90015	623.10437	326.87744	0.00000	0.00000	0.00000	-3239.83057	505.67902	309.41946	0.00000	0.00000	0.00000	0.00000	0.00000	0.00000	-3175.20508	360.54102	302.48547	0.00000	0.00000	0.00000	0.00000	0.00000	0.00000	-3177.36426	99.51787	221.01872	0.00000	0.00000	0.00000	0.00000	0.00000	0.00000	0.00000	0.00000	0.00000	-3365.63550	68.48732	193.52380	0.00000	0.00000	0.00000	0.00000	0.00000	0.00000	-3333.00537	1001.02545	56.74996	0.00000	0.00000	0.00000	0.00000	0.00000	0.00000	0.00000	0.00000	0.00000	0.00000	0.00000	0.00000	0.00000	0.00000	0.00000	0.00000	0.00000	0.00000	-3426.83203	469.85141	3.24282	0.00000	0.00000	0.00000	0.00000	0.00000	0.00000	0.00000	0.00000	0.00000	0.00000	0.00000	0.00000	0.00000	0.00000	0.00000	-3308.99756	130.17761	70.79076	0.00000	0.00000	0.00000	0.00000	0.00000	0.00000	0.00000	0.00000	0.00000
879	7.31667	0.00000	0.00000	0.00000	-3344.51929	1015.59088	285.47806	0.00000	0.00000	0.00000	-3224.04053	579.71509	311.36212	-3280.05859	622.68060	326.87454	0.00000	0.00000	0.00000	-3241.45337	505.48572	309.73682	0.00000	0.00000	0.00000	0.00000	0.00000	0.00000	-3175.75171	360.70218	302.65417	0.00000	0.00000	0.00000	0.00000	0.00000	0.00000	-3177.17383	99.69675	220.98286	0.00000	0.00000	0.00000	0.00000	0.00000	0.00000	0.00000	0.00000	0.00000	-3362.94507	66.09673	192.41531	0.00000	0.00000	0.00000	0.00000	0.00000	0.00000	-3340.90186	1000.07275	56.45112	0.00000	0.00000	0.00000	0.00000	0.00000	0.00000	0.00000	0.00000	0.00000	0.00000	0.00000	0.00000	0.00000	0.00000	0.00000	0.00000	0.00000	0.00000	-3438.98364	465.36688	1.46310	0.00000	0.00000	0.00000	0.00000	0.00000	0.00000	0.00000	0.00000	0.00000	0.00000	0.00000	0.00000	0.00000	0.00000	0.00000	-3340.41016	119.71431	68.64043	0.00000	0.00000	0.00000	0.00000	0.00000	0.00000	0.00000	0.00000	0.00000
880	7.32500	0.00000	0.00000	0.00000	-3352.05493	1014.42841	285.19016	0.00000	0.00000	0.00000	-3228.17798	581.01672	313.01492	-3283.62280	622.24976	326.96939	0.00000	0.00000	0.00000	-3243.25879	505.32364	310.09454	0.00000	0.00000	0.00000	0.00000	0.00000	0.00000	-3176.58057	360.84277	302.92062	0.00000	0.00000	0.00000	0.00000	0.00000	0.00000	-3177.34619	99.48941	221.04034	0.00000	0.00000	0.00000	0.00000	0.00000	0.00000	0.00000	0.00000	0.00000	-3362.91357	66.04219	192.47673	0.00000	0.00000	0.00000	0.00000	0.00000	0.00000	-3348.84302	998.92389	56.12324	0.00000	0.00000	0.00000	0.00000	0.00000	0.00000	0.00000	0.00000	0.00000	0.00000	0.00000	0.00000	0.00000	0.00000	0.00000	0.00000	0.00000	0.00000	-3450.82202	460.62317	-0.32615	0.00000	0.00000	0.00000	0.00000	0.00000	0.00000	0.00000	0.00000	0.00000	0.00000	0.00000	0.00000	0.00000	0.00000	0.00000	-3371.26221	109.90297	67.33344	0.00000	0.00000	0.00000	0.00000	0.00000	0.00000	0.00000	0.00000	0.00000
